<?xml version="1.0" standalone="no"?>
<!DOCTYPE svg PUBLIC "-//W3C//DTD SVG 20010904//EN"
 "http://www.w3.org/TR/2001/REC-SVG-20010904/DTD/svg10.dtd">
<svg version="1.0" xmlns="http://www.w3.org/2000/svg"
 width="300.000000pt" height="300.000000pt" viewBox="0 0 300.000000 300.000000"
 preserveAspectRatio="xMidYMid meet">
<metadata>
Created by potrace 1.11, written by Peter Selinger 2001-2013
</metadata>
<g transform="translate(0.000000,300.000000) scale(0.100000,-0.100000)"
fill="#000000" stroke="none">
<path d="M1347 2495 c-21 -7 -57 -25 -80 -40 -142 -93 -228 -302 -182 -439
l16 -47 -58 -60 c-32 -33 -60 -65 -62 -72 -2 -7 -7 -14 -11 -17 -16 -11 -80
-142 -101 -206 -28 -90 -35 -270 -14 -364 32 -136 111 -252 204 -300 99 -50
164 -63 304 -63 l88 1 -5 -67 c-2 -36 -5 -71 -5 -78 -1 -6 -25 -17 -53 -23
-29 -7 -57 -16 -63 -20 -5 -3 -29 -13 -53 -20 -24 -7 -45 -17 -48 -22 -3 -5
-21 -15 -40 -23 -19 -8 -34 -19 -34 -24 0 -6 -5 -11 -11 -11 -5 0 -27 -13 -47
-30 -22 -17 -59 -34 -92 -41 -79 -17 -177 -58 -235 -98 -78 -55 -205 -189
-205 -217 0 -8 -5 -14 -12 -14 -6 0 -8 -3 -5 -7 4 -3 1 -13 -6 -22 -13 -15
-47 -113 -54 -154 -3 -16 58 -17 1199 -15 l1203 3 -2 40 c-1 45 -12 162 -17
185 -1 8 -6 35 -10 60 -11 69 -12 73 -24 103 -7 16 -12 33 -12 38 0 20 -41 89
-70 119 -17 17 -56 43 -87 57 -48 22 -73 27 -172 29 -64 2 -134 -1 -155 -6
-38 -8 -42 -7 -81 33 -63 65 -126 92 -265 112 -56 9 -276 9 -290 0 -11 -7 -11
-7 -15 50 -2 22 -6 57 -8 78 -3 23 0 37 7 37 6 0 39 15 73 33 129 67 235 188
270 307 18 59 24 196 12 245 -5 17 -11 45 -14 63 -3 18 -12 50 -19 70 -8 20
-19 53 -26 72 -31 83 -126 220 -191 275 -47 40 -162 104 -187 105 -10 0 -10 4
0 23 7 13 12 60 12 112 0 92 -17 147 -63 199 -43 49 -140 73 -204 51z"/>
</g>
</svg>
